<svg xmlns="http://www.w3.org/2000/svg" viewBox="0 0 1920 1080" preserveAspectRatio="xMidYMid slice">
  <defs>
    <filter id="glitch" x="-10%" y="-10%" width="120%" height="120%">
      <feColorMatrix type="matrix" values="1 0 0 0 0  0 1 0 0 0  0 0 1 0 0  0 0 0 1 0" result="original"/>
      <feOffset dx="3" dy="0" in="original" result="red"/>
      <feColorMatrix in="red" type="matrix" values="1 0 0 0 0  0 0 0 0 0  0 0 0 0 0  0 0 0 1 0"/>
    </filter>
    
    <linearGradient id="bgGrad" x1="0%" y1="0%" x2="0%" y2="100%">
      <stop offset="0%" style="stop-color:#0a0505"/>
      <stop offset="50%" style="stop-color:#050305"/>
      <stop offset="100%" style="stop-color:#0a0508"/>
    </linearGradient>
    
    <pattern id="scanlines" x="0" y="0" width="4" height="4" patternUnits="userSpaceOnUse">
      <line x1="0" y1="0" x2="4" y2="0" stroke="#000000" stroke-width="1" opacity="0.3"/>
    </pattern>
    
    <clipPath id="glitchClip1">
      <rect x="0" y="200" width="1920" height="40"/>
    </clipPath>
    <clipPath id="glitchClip2">
      <rect x="0" y="450" width="1920" height="25"/>
    </clipPath>
    <clipPath id="glitchClip3">
      <rect x="0" y="700" width="1920" height="35"/>
    </clipPath>
    <clipPath id="glitchClip4">
      <rect x="0" y="850" width="1920" height="20"/>
    </clipPath>
  </defs>
  
  <!-- Background -->
  <rect width="100%" height="100%" fill="url(#bgGrad)"/>
  
  <!-- Glitch bars -->
  <g opacity="0.15">
    <rect x="0" y="180" width="1920" height="3" fill="#ff0040"/>
    <rect x="0" y="220" width="1920" height="2" fill="#00ffd6"/>
    <rect x="0" y="440" width="1920" height="4" fill="#ff0040"/>
    <rect x="0" y="475" width="1920" height="2" fill="#7c3aed"/>
    <rect x="0" y="690" width="1920" height="3" fill="#00ffd6"/>
    <rect x="0" y="735" width="1920" height="2" fill="#ff0040"/>
    <rect x="0" y="845" width="1920" height="2" fill="#7c3aed"/>
    <rect x="0" y="870" width="1920" height="3" fill="#00ffd6"/>
  </g>
  
  <!-- Offset glitch blocks -->
  <g opacity="0.08">
    <rect x="100" y="200" width="300" height="40" fill="#ff0040" transform="translate(10, 0)"/>
    <rect x="800" y="200" width="200" height="40" fill="#00ffd6" transform="translate(-5, 0)"/>
    <rect x="1400" y="200" width="350" height="40" fill="#7c3aed" transform="translate(8, 0)"/>
    
    <rect x="200" y="450" width="250" height="25" fill="#00ffd6" transform="translate(-8, 0)"/>
    <rect x="600" y="450" width="400" height="25" fill="#ff0040" transform="translate(12, 0)"/>
    <rect x="1200" y="450" width="300" height="25" fill="#7c3aed" transform="translate(-6, 0)"/>
    
    <rect x="50" y="700" width="400" height="35" fill="#7c3aed" transform="translate(6, 0)"/>
    <rect x="700" y="700" width="350" height="35" fill="#00ffd6" transform="translate(-10, 0)"/>
    <rect x="1300" y="700" width="450" height="35" fill="#ff0040" transform="translate(4, 0)"/>
  </g>
  
  <!-- Digital noise pattern -->
  <g opacity="0.05">
    <rect x="50" y="100" width="8" height="3" fill="#00ffd6"/>
    <rect x="150" y="150" width="12" height="2" fill="#ff0040"/>
    <rect x="300" y="80" width="6" height="4" fill="#7c3aed"/>
    <rect x="500" y="180" width="10" height="2" fill="#00ffd6"/>
    <rect x="700" y="120" width="8" height="3" fill="#ff0040"/>
    <rect x="900" y="90" width="14" height="2" fill="#7c3aed"/>
    <rect x="1100" y="160" width="6" height="4" fill="#00ffd6"/>
    <rect x="1300" y="100" width="10" height="2" fill="#ff0040"/>
    <rect x="1500" y="140" width="8" height="3" fill="#7c3aed"/>
    <rect x="1700" y="70" width="12" height="2" fill="#00ffd6"/>
    <rect x="1800" y="190" width="6" height="4" fill="#ff0040"/>
    
    <rect x="80" y="950" width="10" height="2" fill="#00ffd6"/>
    <rect x="250" y="980" width="8" height="3" fill="#ff0040"/>
    <rect x="450" y="920" width="12" height="2" fill="#7c3aed"/>
    <rect x="650" y="990" width="6" height="4" fill="#00ffd6"/>
    <rect x="850" y="940" width="10" height="2" fill="#ff0040"/>
    <rect x="1050" y="970" width="8" height="3" fill="#7c3aed"/>
    <rect x="1250" y="930" width="14" height="2" fill="#00ffd6"/>
    <rect x="1450" y="960" width="6" height="4" fill="#ff0040"/>
    <rect x="1650" y="1000" width="10" height="2" fill="#7c3aed"/>
    <rect x="1850" y="910" width="8" height="3" fill="#00ffd6"/>
  </g>
  
  <!-- Scanlines overlay -->
  <rect width="100%" height="100%" fill="url(#scanlines)" opacity="0.4"/>
  
  <!-- Vignette -->
  <rect width="100%" height="100%" fill="url(#bgGrad)" opacity="0.3"/>
</svg>
